<svg width="26" height="26" viewBox="0 0 26 26" fill="none" xmlns="http://www.w3.org/2000/svg">
<path d="M22.705 0.439339C23.2907 -0.146448 24.2403 -0.146448 24.826 0.439339C25.4117 1.02514 25.4118 1.97469 24.826 2.56043L14.7538 12.6327L24.826 22.705C25.4116 23.2907 25.4117 24.2403 24.826 24.8261C24.2403 25.4118 23.2908 25.4116 22.705 24.8261L12.6327 14.7538L2.56042 24.8261C1.97468 25.4118 1.02512 25.4117 0.439331 24.8261C-0.146449 24.2403 -0.146437 23.2908 0.439331 22.705L10.5116 12.6327L0.439331 2.56043C-0.146455 1.97465 -0.146455 1.02513 0.439331 0.439339C1.02512 -0.146371 1.97466 -0.146422 2.56042 0.439339L12.6327 10.5116L22.705 0.439339Z" fill="black"/>
</svg>
